<?xml version="1.0" encoding="UTF-8"?>
<svg xmlns="http://www.w3.org/2000/svg" width="348.9" height="69.1" version="1.1" viewBox="0 0 348.9 69.1">
  <defs>
    <style>
      .cls-1 {
        fill: #60636d;
      }
    </style>
  </defs>
  <!-- Generator: Adobe Illustrator 28.7.1, SVG Export Plug-In . SVG Version: 1.2.0 Build 142)  -->
  <g>
    <g id="Layer_1">
      <g id="Layer_1-2" data-name="Layer_1">
        <g>
          <path class="cls-1" d="M89.6,25.7v3.9h0c1-1.5,2.3-2.6,3.7-3.4,1.4-.8,3.1-1.2,5-1.2s3.4.3,4.9,1,2.6,1.9,3.4,3.7c.8-1.2,2-2.3,3.4-3.3s3.2-1.4,5.1-1.4,2.9.2,4.2.6c1.3.4,2.4,1,3.3,1.8s1.6,1.9,2.1,3.2c.5,1.3.8,2.9.8,4.7v19h-7.8v-16.1c0-1,0-1.9,0-2.7,0-.8-.3-1.6-.6-2.2-.3-.6-.8-1.1-1.5-1.5-.6-.4-1.5-.5-2.6-.5s-2,.2-2.7.6-1.2,1-1.6,1.7-.6,1.5-.8,2.3c0,.9-.2,1.7-.2,2.6v15.9h-7.8v-18.5c0-.8-.2-1.6-.5-2.3s-.7-1.3-1.4-1.7c-.6-.4-1.6-.6-2.8-.6s-.9,0-1.5.2-1.2.5-1.8.9c-.6.5-1.1,1.1-1.5,2s-.6,2-.6,3.4v16.5h-7.8v-28.5h7.6Z"/>
          <path class="cls-1" d="M139.7,47.3c1.2,1.1,2.9,1.7,5.1,1.7s2.9-.4,4.1-1.2c1.1-.8,1.8-1.6,2.1-2.5h6.9c-1.1,3.4-2.8,5.9-5.1,7.3-2.3,1.5-5,2.2-8.3,2.2s-4.3-.4-6.1-1.1c-1.8-.7-3.3-1.7-4.6-3.1-1.2-1.3-2.2-2.9-2.9-4.7s-1-3.9-1-6.1.3-4.1,1-5.9c.7-1.8,1.7-3.4,3-4.8,1.3-1.3,2.8-2.4,4.6-3.2,1.8-.8,3.8-1.2,5.9-1.2s4.5.5,6.3,1.4,3.3,2.2,4.4,3.8c1.2,1.6,2,3.4,2.5,5.4s.7,4.1.5,6.3h-20.5c.1,2.5.8,4.4,1.9,5.5l.2.2ZM148.5,32.3c-.9-1-2.4-1.5-4.3-1.5s-2.3.2-3.1.6-1.5.9-2,1.6c-.5.6-.8,1.3-1,2s-.3,1.3-.4,1.9h12.7c-.4-2-1-3.5-2-4.5h.1Z"/>
          <path class="cls-1" d="M169.9,25.7v3.9h.1c1-1.5,2.3-2.6,3.7-3.4s3.1-1.2,5-1.2,3.4.3,4.9,1,2.6,1.9,3.4,3.7c.8-1.2,2-2.3,3.4-3.3s3.2-1.4,5.1-1.4,2.9.2,4.2.6,2.4,1,3.3,1.8c.9.8,1.6,1.9,2.1,3.2.5,1.3.8,2.9.8,4.7v19h-7.8v-16.1c0-1,0-1.9-.1-2.7,0-.8-.3-1.6-.6-2.2-.3-.6-.8-1.1-1.5-1.5-.6-.4-1.5-.5-2.6-.5s-2,.2-2.7.6-1.2,1-1.6,1.7-.6,1.5-.8,2.3c-.1.9-.2,1.7-.2,2.6v15.9h-7.8v-18.5c0-.8-.2-1.6-.5-2.3s-.7-1.3-1.4-1.7c-.6-.4-1.6-.6-2.8-.6s-.9,0-1.5.2-1.2.5-1.8.9c-.6.5-1.1,1.1-1.5,2s-.6,2-.6,3.4v16.5h-7.8v-28.5h7.6Z"/>
          <path class="cls-1" d="M220,47.3c1.2,1.1,2.9,1.7,5.1,1.7s2.9-.4,4.1-1.2c1.1-.8,1.8-1.6,2.1-2.5h6.9c-1.1,3.4-2.8,5.9-5.1,7.3-2.3,1.5-5,2.2-8.3,2.2s-4.3-.4-6.1-1.1c-1.8-.7-3.3-1.7-4.6-3.1-1.2-1.3-2.2-2.9-2.9-4.7s-1-3.9-1-6.1.3-4.1,1-5.9c.7-1.8,1.7-3.4,3-4.8,1.3-1.3,2.8-2.4,4.6-3.2,1.8-.8,3.8-1.2,5.9-1.2s4.5.5,6.3,1.4,3.3,2.2,4.4,3.8c1.2,1.6,2,3.4,2.5,5.4s.7,4.1.6,6.3h-20.5c.1,2.5.8,4.4,1.9,5.5v.2ZM228.9,32.3c-.9-1-2.4-1.5-4.3-1.5s-2.3.2-3.1.6-1.5.9-2,1.6c-.5.6-.8,1.3-1,2s-.3,1.3-.4,1.9h12.7c-.4-2-1-3.5-2-4.5h.1Z"/>
          <path class="cls-1" d="M250.2,25.7v4h.2c1-1.7,2.3-2.9,3.9-3.6,1.6-.8,3.2-1.1,4.8-1.1s3.8.3,5.1.9c1.3.6,2.4,1.4,3.2,2.4.8,1,1.3,2.2,1.6,3.7.3,1.5.5,3.1.5,4.8v17.5h-7.8v-16.1c0-2.3-.4-4.1-1.1-5.3s-2-1.7-3.9-1.7-3.7.6-4.6,1.9c-1,1.3-1.4,3.3-1.4,6.2v14.9h-7.8v-28.5h7.4-.1Z"/>
          <path class="cls-1" d="M283.8,45.6v8.5h-8.6v-8.5h8.6Z"/>
          <path class="cls-1" d="M302.5,25.7v5.2h-5.7v14.1c0,1.3.2,2.2.7,2.6.4.4,1.3.7,2.6.7s.9,0,1.3,0,.8,0,1.2-.2v6.1c-.7,0-1.4.2-2.2.2h-2.4c-1.2,0-2.4,0-3.4-.3-1.1-.2-2-.5-2.9-1-.8-.5-1.5-1.2-2-2-.5-.9-.7-2-.7-3.5v-16.8h-4.7v-5.2h4.7v-8.5h7.8v8.5h5.7Z"/>
          <path class="cls-1" d="M305.8,33.7c.7-1.9,1.7-3.4,3-4.7s2.8-2.3,4.6-3c1.8-.7,3.8-1.1,6.1-1.1s4.3.4,6.1,1.1c1.8.7,3.4,1.7,4.7,3s2.3,2.9,3,4.7c.7,1.9,1,3.9,1,6.2s-.3,4.3-1,6.2c-.7,1.8-1.7,3.4-3,4.7s-2.8,2.3-4.7,3c-1.8.7-3.8,1-6.1,1s-4.3-.3-6.1-1c-1.8-.7-3.3-1.7-4.6-3-1.3-1.3-2.3-2.9-3-4.7s-1-3.9-1-6.2.3-4.3,1-6.2ZM312.9,43.3c.2,1.1.6,2.1,1.1,2.9s1.2,1.6,2.1,2.1,2,.8,3.3.8,2.4-.3,3.3-.8,1.6-1.2,2.1-2.1.9-1.8,1.1-2.9c.2-1.1.3-2.2.3-3.3s-.1-2.3-.3-3.4-.6-2.1-1.1-2.9c-.5-.8-1.2-1.5-2.1-2.1-.9-.5-2-.8-3.3-.8s-2.4.3-3.3.8c-.9.5-1.6,1.2-2.1,2.1s-.9,1.8-1.1,2.9-.3,2.2-.3,3.4.1,2.3.3,3.3Z"/>
        </g>
        <path class="cls-1" d="M49.9,0h-30.6C8.6,0,0,8.6,0,19.3v30.6c0,10.7,8.6,19.3,19.3,19.3h30.6c10.7,0,19.3-8.6,19.3-19.3v-30.6C69.2,8.6,60.6,0,49.9,0ZM20.5,59.4c-5.9,0-10.7-4.8-10.7-10.7s4.8-10.7,10.7-10.7,10.7,4.8,10.7,10.7-4.8,10.7-10.7,10.7ZM20.5,31.1c-5.9,0-10.7-4.8-10.7-10.7s4.8-10.7,10.7-10.7,10.7,4.8,10.7,10.7-4.8,10.7-10.7,10.7ZM48.7,45.7c-5.9,0-10.7-4.8-10.7-10.7s4.8-10.7,10.7-10.7,10.7,4.8,10.7,10.7-4.8,10.7-10.7,10.7Z"/>
      </g>
    </g>
  </g>
</svg>